# xmcd CD database file
#
# Track frame offsets:
#	150
#	32211
#	63934
#	89135
#	119358
#	147782
#	180911
#	222470
#	264457
#	277050
#	310080
#	345422
#
# Disc length: 4979 seconds
#
# Revision: 0
# Processed by: cddbd v1.5.2PL0 Copyright (c) Steve Scherf et al.
# Submitted via: CDex 1.51
#
DISCID=b413710c
DTITLE=Duke Pearson - The Classic Albums Collection - cd 4
DYEAR=2018
DGENRE=Jazz
TTITLE0=I Say You're Mine
TTITLE1=Duke's Mixure
TTITLE2=Each Time I Think of You
TTITLE3=The Cat Walk
TTITLE4=Cute
TTITLE5=Hello Bright Sunflower
TTITLE6=Amanda
TTITLE7=Bedouin
TTITLE8=Farewell Machelle
TTITLE9=Wahoo
TTITLE10=ESP (extrasensory perception)
TTITLE11=Fly Little Bird Fly
EXTD=YEAR: 2018
EXTT0=
EXTT1=
EXTT2=
EXTT3=
EXTT4=
EXTT5=
EXTT6=
EXTT7=
EXTT8=
EXTT9=
EXTT10=
EXTT11=
PLAYORDER=
